<svg width="25" height="24" viewBox="0 0 25 24" fill="none" xmlns="http://www.w3.org/2000/svg">
<g clip-path="url(#clip0_13_556)">
<path d="M24.3928 20.0445C24.3834 20.1217 24.3581 20.1961 24.3184 20.263L24.0328 20.7435C23.9828 20.8275 23.9119 20.897 23.8269 20.9453C23.7419 20.9936 23.6459 21.0189 23.5482 21.0189H15.9574C15.8776 21.0189 15.7987 21.0358 15.7259 21.0686C15.6532 21.1014 15.5882 21.1493 15.5354 21.2091C14.1149 22.8286 12.762 21.6696 12.3179 21.1953C12.2653 21.1395 12.2018 21.0951 12.1313 21.0648C12.0608 21.0344 11.9849 21.0188 11.9082 21.0189H3.30463C3.17247 21.0189 3.0445 20.9725 2.94308 20.8878C2.84166 20.803 2.77324 20.6853 2.74976 20.5553L0.611299 8.66095C0.587544 8.52748 0.612474 8.38991 0.681556 8.27326L0.978991 7.77275C1.02616 7.69329 1.09222 7.6267 1.1713 7.5789V7.57839C1.26852 7.51987 1.38106 7.49183 1.49437 7.49788L20.3625 8.53121C20.4763 8.5375 20.5855 8.5781 20.6758 8.64767C20.7661 8.71724 20.8331 8.81252 20.8682 8.92095L24.3702 19.8025C24.3955 19.8805 24.4032 19.9632 24.3928 20.0445Z" fill="#FFE262"/>
<path d="M24.3928 20.0437C24.3834 20.1209 24.3581 20.1953 24.3184 20.2622L24.0328 20.7427C23.9828 20.8267 23.9119 20.8962 23.8269 20.9445C23.7419 20.9928 23.6459 21.0181 23.5482 21.0181H15.9574C15.8776 21.0181 15.7987 21.0351 15.7259 21.0679C15.6532 21.1007 15.5882 21.1486 15.5354 21.2084C14.1149 22.8278 12.762 21.6689 12.3179 21.1945C12.2653 21.1387 12.2018 21.0943 12.1313 21.064C12.0608 21.0336 11.9849 21.018 11.9082 21.0181H3.30463C3.17247 21.0181 3.0445 20.9717 2.94308 20.887C2.84166 20.8022 2.77324 20.6846 2.74976 20.5545L0.611299 8.66017C0.587544 8.5267 0.612474 8.38913 0.681556 8.27248L0.978991 7.77197C1.02616 7.69251 1.09222 7.62593 1.1713 7.57812L3.32873 19.5796C3.35217 19.7098 3.42057 19.8275 3.52198 19.9123C3.6234 19.9972 3.75139 20.0437 3.8836 20.0437H12.08C12.1567 20.0435 12.2327 20.059 12.3032 20.0894C12.3737 20.1197 12.4372 20.1642 12.4897 20.2201C12.9338 20.694 14.2867 21.853 15.7072 20.234C15.7599 20.1741 15.8249 20.1261 15.8976 20.0933C15.9704 20.0605 16.0494 20.0436 16.1292 20.0437H24.3928Z" fill="#F6D14F"/>
<path d="M23.2621 19.0554H15.7877C15.7014 19.0556 15.6161 19.0734 15.5369 19.1077C15.4578 19.142 15.3864 19.1921 15.3272 19.2549C14.9282 19.6774 13.8857 20.5246 12.8098 19.2754C12.7506 19.2064 12.6771 19.1511 12.5946 19.1131C12.512 19.0752 12.4222 19.0555 12.3313 19.0554H4.89955L2.62109 8.27026C2.62109 8.27026 7.11134 3.78001 11.5159 8.5518C11.5159 8.5518 15.2995 4.23181 19.9872 8.26923L23.2621 19.0554Z" fill="#EEECFF"/>
<path d="M11.5158 8.55182L10.3037 6.35547L11.3026 17.9367L13.9979 18.6446L11.5158 8.55182Z" fill="#D3D3FF"/>
<path d="M23.2619 19.0549H15.7876C15.7013 19.0552 15.616 19.073 15.5368 19.1073C15.4576 19.1416 15.3863 19.1916 15.3271 19.2544C14.9281 19.677 13.8855 20.5242 12.8097 19.2749C12.7504 19.206 12.677 19.1507 12.5944 19.1127C12.5119 19.0747 12.4221 19.055 12.3312 19.0549H4.89941C4.89941 19.0549 9.17479 14.6109 13.9979 18.6442C13.9979 18.6442 18.9148 14.2724 23.2619 19.0549Z" fill="#D3D3FF"/>
<path d="M11.465 10.3213C10.773 10.32 10.1983 9.69533 10.1496 8.8921L9.82995 3.59088C9.77662 2.70668 10.3778 1.95755 11.1396 1.95899L11.7591 1.96011C12.5209 1.96155 13.1249 2.71288 13.0749 3.59693L12.775 8.89697C12.7295 9.70005 12.157 10.3226 11.465 10.3213Z" fill="#FFE262"/>
<path d="M7.49422 9.60625C6.88345 9.93169 6.08207 9.65241 5.66079 8.96682L2.88018 4.44314C2.41644 3.68862 2.59341 2.74437 3.26582 2.38606L3.81274 2.09468C4.48505 1.73642 5.37171 2.11391 5.74433 2.91704L7.97807 7.73205C8.31653 8.46154 8.10504 9.28077 7.49422 9.60625Z" fill="#FFE262"/>
<path d="M15.9367 9.60625C16.5475 9.93169 17.3489 9.65241 17.7702 8.96682L20.551 4.44314C21.0148 3.68862 20.8377 2.74437 20.1654 2.38606L19.6183 2.09468C18.9459 1.73642 18.0593 2.11391 17.6866 2.91704L15.4529 7.73205C15.1145 8.46154 15.3259 9.28077 15.9367 9.60625Z" fill="#FFE262"/>
<path d="M24.468 19.7707L20.9659 8.88904C20.924 8.76117 20.8446 8.64886 20.738 8.56672C20.6314 8.48457 20.5026 8.43639 20.3682 8.42843L20.139 8.41592L20.0854 8.23951C20.0798 8.2209 20.0689 8.20429 20.0542 8.19161C19.6906 7.87612 19.3013 7.59146 18.8904 7.34058L20.6385 4.49659C20.7662 4.29512 20.8514 4.06976 20.8891 3.83425C20.9268 3.59875 20.9161 3.35804 20.8577 3.1268C20.8135 2.95132 20.7334 2.78688 20.6226 2.64379C20.5118 2.50071 20.3726 2.38207 20.2138 2.29531L19.6669 2.00398C19.506 1.92053 19.3296 1.87109 19.1487 1.85874C18.9679 1.84639 18.7864 1.87139 18.6156 1.93219C18.3905 2.01187 18.1839 2.13638 18.0083 2.2982C17.8327 2.46001 17.6918 2.65577 17.594 2.87362L15.9376 6.44428C14.9278 6.43136 13.931 6.71048 12.9696 7.27407L13.1774 3.60228C13.1939 3.36403 13.1619 3.1249 13.0834 2.89934C13.0049 2.67379 12.8815 2.46649 12.7206 2.28998C12.5986 2.15579 12.4504 2.04813 12.285 1.97369C12.1196 1.89926 11.9407 1.85965 11.7594 1.85731L11.1398 1.85619H11.1375C10.957 1.85806 10.7788 1.89713 10.6141 1.97097C10.4494 2.0448 10.3017 2.15181 10.1802 2.28531C10.0196 2.46172 9.89669 2.66899 9.81889 2.89447C9.74109 3.11995 9.71004 3.35892 9.72764 3.5968L9.93841 7.09202C9.13431 6.59571 8.28498 6.31766 7.41021 6.26336L5.8377 2.87362C5.73995 2.65575 5.59902 2.45997 5.42343 2.29812C5.24785 2.13626 5.04126 2.01171 4.81617 1.93198C4.64539 1.87119 4.46392 1.84619 4.28306 1.85854C4.1022 1.87089 3.92582 1.92033 3.76489 2.00378L3.21776 2.29531C3.05894 2.38207 2.91975 2.50072 2.80894 2.6438C2.69813 2.78688 2.61808 2.95132 2.57381 3.1268C2.51542 3.35804 2.50475 3.59876 2.54244 3.83426C2.58013 4.06976 2.6654 4.29512 2.79304 4.49659L4.31099 6.96623C4.00143 7.12464 3.70251 7.30304 3.41612 7.50028L1.50012 7.3951C1.37856 7.3883 1.25746 7.415 1.15004 7.4723C1.04261 7.52959 0.95297 7.61528 0.890894 7.72002L0.593459 8.22048C0.511733 8.35832 0.48225 8.52093 0.510382 8.67868L2.64884 20.573C2.67642 20.7268 2.75725 20.8661 2.87717 20.9663C2.9971 21.0665 3.14846 21.1213 3.30473 21.1211H11.9083C11.971 21.1211 12.033 21.1338 12.0906 21.1586C12.1481 21.1833 12.2001 21.2195 12.2432 21.265C12.5521 21.5949 13.1858 22.144 13.981 22.1439H14.009C14.5763 22.1348 15.1159 21.8429 15.6125 21.2768C15.6556 21.2278 15.7087 21.1887 15.7682 21.1619C15.8277 21.135 15.8923 21.1212 15.9575 21.1213H23.5483C23.6637 21.121 23.7771 21.0909 23.8775 21.0339C23.9778 20.9768 24.0617 20.8948 24.121 20.7957L24.4067 20.3152C24.455 20.234 24.4854 20.1434 24.496 20.0495C24.5066 19.9557 24.497 19.8606 24.468 19.7707ZM16.095 6.59228C16.0957 6.59074 16.0965 6.5892 16.0972 6.58761L17.78 2.95993C17.866 2.76734 17.9901 2.59419 18.1449 2.45093C18.2997 2.30768 18.4819 2.19731 18.6805 2.12649C18.825 2.07472 18.9785 2.0532 19.1316 2.06325C19.2847 2.07331 19.434 2.11473 19.5704 2.18495L20.1173 2.47634C20.2514 2.55003 20.3687 2.65062 20.4621 2.7718C20.5554 2.89298 20.6227 3.03213 20.6598 3.18054C20.7109 3.38477 20.7198 3.59726 20.6861 3.80506C20.6524 4.01287 20.5768 4.21164 20.4638 4.38926L18.661 7.32217L18.6603 7.32305L18.66 7.32376L17.6832 8.91258C17.2919 9.5493 16.5462 9.81407 15.9854 9.51525C15.4246 9.21643 15.2321 8.45212 15.5464 7.77474L16.095 6.59228ZM15.8426 6.64869L15.3602 7.68843C15.0002 8.46458 15.2324 9.34653 15.8889 9.69632C16.072 9.79334 16.2762 9.8436 16.4834 9.84263C17.0022 9.84263 17.537 9.54212 17.8578 9.02002L18.7828 7.51515C19.1759 7.75505 19.5488 8.02671 19.8976 8.3274L23.0391 18.674C22.1117 17.746 21.0929 17.1407 20.0049 16.874C19.0389 16.6373 18.0185 16.6655 16.9721 16.9577C15.5048 17.3676 14.4193 18.1692 14.0582 18.4603L12.0464 10.2797C12.509 10.0389 12.8424 9.5193 12.8772 8.90238L12.9553 7.52176C13.8913 6.94848 14.8631 6.6553 15.8426 6.64889L15.8426 6.64869ZM23.0262 18.9529H15.7878C15.6876 18.9533 15.5885 18.974 15.4965 19.0138C15.4045 19.0536 15.3216 19.1117 15.2527 19.1845C15.0209 19.43 14.5487 19.8423 13.9881 19.8271C13.6035 19.8184 13.2335 19.6102 12.8876 19.2085C12.8188 19.1283 12.7334 19.064 12.6374 19.0199C12.5414 18.9758 12.437 18.9529 12.3314 18.9529H5.15771C5.52965 18.6188 6.44227 17.8802 7.68216 17.4316C9.86164 16.643 11.9642 17.0777 13.9322 18.7234C13.9328 18.7238 13.9334 18.7241 13.934 18.7246C13.9366 18.7267 13.9391 18.7284 13.9421 18.7302C13.9451 18.732 13.9464 18.7333 13.9487 18.7345C13.9519 18.7362 13.9553 18.7377 13.9587 18.739C13.9609 18.7399 13.963 18.741 13.9653 18.7418C13.9705 18.7436 13.9758 18.7449 13.9813 18.7458C13.9833 18.7461 13.9853 18.7458 13.9873 18.7463C13.9908 18.7468 13.9944 18.7471 13.9979 18.7472H13.9986C14.0059 18.7471 14.0133 18.7462 14.0204 18.7446H14.0225C14.0242 18.7442 14.0256 18.7434 14.0273 18.7429C14.0312 18.7418 14.035 18.7404 14.0387 18.7388C14.0412 18.7377 14.0438 18.7365 14.046 18.7353C14.0492 18.7336 14.0524 18.7317 14.0554 18.7296C14.0578 18.7279 14.0601 18.7263 14.0624 18.7245C14.0636 18.7235 14.065 18.7228 14.0661 18.7217C14.0783 18.7109 15.303 17.6354 17.0341 17.1538C19.2744 16.5304 21.2891 17.1357 23.0262 18.9529ZM9.93241 3.58439C9.91644 3.37445 9.94341 3.16347 10.0117 2.9643C10.0799 2.76513 10.188 2.58195 10.3294 2.42593C10.4318 2.31287 10.5564 2.22214 10.6954 2.15941C10.8345 2.09667 10.985 2.06328 11.1375 2.06131H11.1394L11.759 2.06244C11.9123 2.06486 12.0636 2.09878 12.2033 2.1621C12.343 2.22542 12.4682 2.3168 12.5711 2.43054C12.713 2.58676 12.8216 2.77011 12.8906 2.96951C12.9596 3.16891 12.9875 3.38023 12.9725 3.5907L12.7538 7.45633V7.45966L12.6728 8.89079C12.6307 9.63566 12.1014 10.2183 11.4674 10.2183H11.4654C10.8302 10.2171 10.2973 9.63171 10.2523 8.88556L9.93241 3.58439ZM2.96776 4.38951C2.85474 4.21184 2.77909 4.01302 2.74542 3.80516C2.71175 3.5973 2.72076 3.38475 2.77192 3.18049C2.80895 3.0321 2.87624 2.89297 2.96956 2.7718C3.06288 2.65063 3.18021 2.55004 3.31422 2.47634L3.86109 2.18495C4.01575 2.10304 4.18824 2.06057 4.36325 2.06131C4.49516 2.06187 4.6261 2.08381 4.75099 2.12629C4.94964 2.19711 5.13186 2.30749 5.28664 2.45074C5.44142 2.59399 5.56554 2.76714 5.6515 2.95972L7.88524 7.77479C8.19944 8.45217 8.00662 9.21668 7.44621 9.5153C6.8858 9.81391 6.13965 9.54935 5.74837 8.91263L2.96776 4.38951ZM4.41904 7.14238L5.5736 9.02027C5.89452 9.54243 6.42924 9.84289 6.94796 9.84289C7.15517 9.84383 7.35941 9.79357 7.54252 9.69658C8.19893 9.34679 8.43119 8.46484 8.07113 7.68869L7.50857 6.47556C8.35472 6.54736 9.17621 6.83966 9.95364 7.34494L10.0473 8.89802C10.0986 9.75212 10.7215 10.4222 11.4648 10.4236H11.4672C11.5991 10.4234 11.7301 10.4022 11.8552 10.3606L13.8259 18.3741C12.7814 17.5569 11.6826 17.0629 10.5558 16.9057C9.58452 16.7702 8.59175 16.883 7.60519 17.2412C6.62843 17.6031 5.7308 18.1502 4.96165 18.8527L2.7333 8.30494C3.24082 7.84379 3.80783 7.45271 4.41919 7.14212L4.41904 7.14238ZM24.2304 20.21L23.9447 20.6906C23.9037 20.7591 23.8456 20.8159 23.7761 20.8553C23.7067 20.8948 23.6282 20.9156 23.5483 20.9158H15.9575C15.8631 20.9158 15.7698 20.9358 15.6837 20.9747C15.5976 21.0135 15.5208 21.0702 15.4584 21.141C15.0014 21.6619 14.5127 21.9302 14.0057 21.9384C13.2751 21.9496 12.6823 21.4336 12.3927 21.1244C12.3304 21.0586 12.2553 21.0061 12.172 20.9702C12.0887 20.9344 11.999 20.9158 11.9083 20.9158H3.30473C3.19659 20.9159 3.09185 20.878 3.00885 20.8087C2.92585 20.7394 2.8699 20.643 2.85079 20.5366L0.712381 8.64268C0.692866 8.53341 0.713248 8.42076 0.769817 8.32525L1.06725 7.82479C1.1103 7.75238 1.17234 7.69313 1.24666 7.65346C1.32097 7.6138 1.40472 7.59523 1.48884 7.59976L3.15038 7.69099C2.93897 7.84663 2.73793 8.01588 2.54853 8.19766C2.53646 8.20973 2.52759 8.22461 2.52273 8.24098C2.51787 8.25734 2.51716 8.27465 2.52069 8.29135L4.79919 19.0767C4.80006 19.0801 4.8011 19.0836 4.80232 19.0869C4.80314 19.0894 4.80371 19.092 4.80468 19.0944C4.80611 19.0976 4.80772 19.1008 4.8095 19.1038C4.81073 19.1062 4.81191 19.1086 4.81335 19.1108C4.81526 19.1137 4.81733 19.1165 4.81955 19.1192C4.8213 19.1214 4.82309 19.1236 4.82504 19.1256C4.82699 19.1277 4.82714 19.1285 4.82847 19.1297C4.82981 19.1309 4.83135 19.1319 4.83278 19.1331C4.83422 19.1343 4.83663 19.1362 4.83863 19.1377C4.84177 19.1401 4.84504 19.1423 4.84842 19.1444L4.85212 19.1463C4.868 19.1547 4.88583 19.1588 4.90381 19.1581H12.3314C12.4075 19.1582 12.4827 19.1747 12.5519 19.2065C12.6211 19.2383 12.6825 19.2847 12.7321 19.3425C13.1176 19.79 13.5386 20.0221 13.9834 20.0324C13.9936 20.0324 14.0039 20.0327 14.0137 20.0327C14.6394 20.0327 15.1506 19.5916 15.4016 19.3256C15.4513 19.273 15.5111 19.2311 15.5775 19.2023C15.6439 19.1735 15.7154 19.1585 15.7877 19.1581H23.26H23.2624C23.2703 19.158 23.2781 19.157 23.2858 19.1551H23.2864C23.2937 19.1533 23.3007 19.1508 23.3075 19.1474L23.3088 19.1468C23.317 19.1427 23.3246 19.1375 23.3314 19.1314C23.348 19.1162 23.3591 19.0959 23.3629 19.0736L23.3633 19.0713C23.3643 19.0647 23.3647 19.058 23.3644 19.0513C23.3644 19.05 23.3644 19.0487 23.3644 19.0474C23.3638 19.0408 23.3627 19.0342 23.3608 19.0278C23.3608 19.027 23.3608 19.0262 23.3604 19.0255L23.3597 19.0228C23.3597 19.0222 23.3593 19.0216 23.3591 19.021L20.2026 8.62484L20.3573 8.63325C20.4502 8.63876 20.5394 8.6721 20.6131 8.72894C20.6869 8.78578 20.7419 8.86348 20.7709 8.95197L24.2729 19.8337C24.293 19.8958 24.2995 19.9615 24.2922 20.0264C24.2848 20.0913 24.2638 20.1539 24.2304 20.21Z" fill="black"/>
<path d="M21.7734 19.9415H16.1295C16.0351 19.9414 15.9417 19.9614 15.8557 20.0002C15.7696 20.039 15.6928 20.0957 15.6304 20.1666C15.1734 20.6874 14.6847 20.9557 14.1779 20.964C13.449 20.9771 12.8542 20.4593 12.5647 20.1503C12.5024 20.0843 12.4273 20.0318 12.344 19.9959C12.2606 19.96 12.1709 19.9415 12.0802 19.9415H3.88402C3.77586 19.9416 3.67111 19.9036 3.58813 19.8342C3.50515 19.7649 3.44923 19.6685 3.43018 19.562L1.66141 9.72342C1.6593 9.70992 1.65451 9.69698 1.64733 9.68536C1.64015 9.67374 1.63071 9.66367 1.61958 9.65574C1.60846 9.64782 1.59586 9.64219 1.58252 9.6392C1.56919 9.63621 1.5554 9.63592 1.54195 9.63833C1.5285 9.64075 1.51567 9.64583 1.50422 9.65327C1.49276 9.66071 1.4829 9.67037 1.47523 9.68167C1.46755 9.69298 1.46222 9.7057 1.45953 9.71909C1.45684 9.73249 1.45685 9.74629 1.45957 9.75968L3.22849 19.5984C3.25605 19.7522 3.33685 19.8915 3.45674 19.9917C3.57663 20.0919 3.72796 20.1468 3.88423 20.1466H12.0802C12.1428 20.1466 12.2049 20.1593 12.2624 20.1841C12.32 20.2088 12.3719 20.2451 12.415 20.2906C12.7241 20.6204 13.358 21.1693 14.1529 21.1693H14.1812C14.7485 21.16 15.2878 20.8682 15.7845 20.3021C15.8276 20.2532 15.8807 20.2141 15.9402 20.1873C15.9997 20.1605 16.0642 20.1467 16.1295 20.1468H21.7734C21.8006 20.1468 21.8267 20.136 21.8459 20.1168C21.8651 20.0976 21.8759 20.0715 21.8759 20.0443C21.8759 20.0171 21.8651 19.991 21.8459 19.9717C21.8267 19.9525 21.8006 19.9417 21.7734 19.9417V19.9415Z" fill="black"/>
</g>
<defs>
<clipPath id="clip0_13_556">
<rect width="24" height="24" fill="white" transform="translate(0.5)"/>
</clipPath>
</defs>
</svg>
