<svg width="146" height="48" viewBox="0 0 146 48" fill="none" xmlns="http://www.w3.org/2000/svg">
<path d="M117.35 12.9476C117.045 12.0092 116.361 11.6836 115.106 11.9326C113.09 12.3348 111.074 12.7561 109.058 13.1583C106.872 13.5797 104.666 13.9627 102.288 14.3841C102.783 10.4004 102.041 6.97206 98.6753 4.57799C98.5232 4.57799 98.2189 4.63545 97.9337 4.57799C96.089 4.17579 95.2143 4.6546 94.6247 6.47409C94.2634 7.56578 93.9782 8.65748 93.6359 9.84493C93.2936 9.80663 92.9322 9.78748 92.5899 9.74917C92.5139 10.4387 92.3808 11.109 92.1906 11.7602C92.3237 12.8136 91.9053 13.867 90.7643 14.5948C90.384 14.8246 89.9847 14.9203 89.6043 14.9012C89.5663 15.0353 89.4902 15.1885 89.4142 15.3225C89.1479 15.7822 88.6345 16.1653 88.064 16.3376C88.8246 16.8931 89.262 17.889 88.8817 18.8849C89.9847 18.9615 91.0116 19.8234 91.0306 20.9151C91.0306 20.8959 91.0686 20.8768 91.0876 20.8385C91.1827 20.6853 91.4109 20.6278 91.6962 20.4554C91.487 22.1983 91.2778 23.7688 91.1066 25.3585C90.7453 28.9591 90.5932 32.5598 91.2017 36.1413C91.563 38.2864 92.2667 40.2974 93.9401 41.7913C95.9179 43.5725 99.2078 43.4959 101.052 41.6573C101.623 41.1018 101.889 40.4507 101.547 39.6654C101.186 38.861 100.539 38.5546 99.7022 38.6312C99.3979 38.6695 99.0747 38.7269 98.7704 38.8227C97.2871 39.2823 96.9448 39.1674 96.7166 37.5395C96.4694 35.72 96.3933 33.8622 96.3743 32.0235C96.3743 31.3341 96.5835 30.5871 96.8497 29.9168C98.2379 26.4693 99.6642 23.0219 101.109 19.6127C101.224 19.3254 101.585 19.0573 101.889 18.9807C103.372 18.6168 104.875 18.4061 106.339 18.0039C109.61 17.1037 112.862 16.1844 116.095 15.1693C117.236 14.8054 117.635 13.8478 117.331 12.9285L117.35 12.9476Z" fill="#6FB3A2"/>
<path d="M63.5136 40.8142C62.3916 40.3928 61.8971 38.9755 62.3535 37.8838C62.1063 38.0562 61.8401 38.2094 61.5168 38.4201C62.3726 36.6198 63.2663 35.0301 63.8559 33.3447C64.4454 31.6401 65.187 30.1654 66.8225 29.2652C67.2028 29.0545 67.5451 28.7289 67.7923 28.365C68.4959 27.4074 69.2566 26.4498 69.7891 25.3772C70.1884 24.592 69.9222 23.7301 69.1805 23.1556C68.515 22.6384 67.412 22.6576 66.7084 23.2513C66.3471 23.5578 66.0618 23.96 65.7766 24.3238C65.5483 24.6111 65.3582 24.9367 65.2821 25.0516C64.4834 24.2089 63.7988 23.2896 62.905 22.6576C62.3726 22.2554 62.0873 21.9298 61.9732 21.2978C61.6119 19.1335 60.4519 17.8503 58.303 17.6588C54.0052 17.2757 49.7644 17.7928 45.6758 19.1718C45.1053 19.3633 44.725 19.3059 44.2306 18.942C41.6633 17.0076 38.9059 16.7012 36.0153 18.1184C33.6383 19.3059 31.9648 21.2211 30.5575 23.4428C30.1962 24.0174 29.6067 24.4388 29.0742 24.975C26.1076 21.7957 22.5895 19.9762 18.7101 18.5398C19.0144 18.31 19.2426 18.1376 19.4708 17.9844C20.9541 16.9501 22.4754 15.9542 23.9397 14.9008C26.8493 12.794 27.1345 10.2276 24.7574 7.50795C24.4532 7.14405 24.1299 6.74184 23.7495 6.51201C21.5056 5.13303 19.3377 3.65829 16.9796 2.50914C13.4235 0.785414 9.69617 -0.555261 5.62659 0.229992C4.20033 0.498128 2.7931 0.919485 1.44291 1.41745C0.454036 1.78135 -0.021383 2.87304 0.130751 3.7349C0.282885 4.57761 1.02454 5.11388 2.20358 5.20965C2.62194 5.24795 3.0213 5.24795 3.43966 5.2671C4.56165 5.36286 5.66462 5.47778 6.90071 5.5927C6.34923 6.60778 5.89282 7.43134 5.45544 8.27405C4.90395 9.38489 4.2764 10.4957 5.03707 11.779C5.13215 11.9322 5.05609 12.2195 5.03707 12.4301C4.80887 13.6942 4.56165 14.9391 4.37148 16.2032C4.29542 16.7203 4.10525 16.9501 3.5918 17.1034C2.75506 17.3715 1.89931 17.6971 1.17667 18.1759C-0.401718 19.2101 -0.382701 20.8381 1.17667 21.8915C1.53799 22.1405 1.91832 22.4278 2.33669 22.5235C3.42065 22.7533 3.32556 23.4045 3.26851 24.2855C3.00228 28.2501 2.77408 32.2338 2.62194 36.2176C2.58391 37.3667 2.79309 38.535 3.76295 39.3394C4.10525 39.6267 4.52362 39.8374 4.92297 40.0864C4.80887 40.2779 4.7328 40.4311 4.63772 40.546C3.49672 42.0591 3.7059 43.553 4.71379 45.0469C5.72167 46.5408 6.95776 47.4409 8.87845 46.943C15.5533 45.2192 21.5816 42.2889 26.6781 37.5391C27.4388 36.8304 28.2375 36.1601 29.0172 35.4898C28.9791 35.4323 29.0552 35.5664 29.1313 35.7004C31.4323 40.546 36.3767 42.4613 41.321 40.412C44.2496 39.1862 46.6077 37.1752 48.6615 34.8003C49.1369 34.264 49.5743 33.7086 49.9546 33.2681C49.9546 34.762 49.8215 36.2942 49.9736 37.8072C50.3159 41.1206 52.617 43.1316 55.5455 42.7677C56.4013 42.6528 57.219 42.2889 58.0748 42.0399C58.303 42.3272 58.5122 42.557 58.7404 42.7486C59.2538 42.6528 59.8053 42.7486 60.2427 43.0167H60.2807C60.5469 43.0167 60.7942 42.9784 61.0604 42.9592C61.4788 42.9209 61.8781 42.8635 62.2775 42.7294C62.829 42.5379 63.3234 42.2123 63.8178 41.8676C63.6086 41.542 63.5136 41.1589 63.5136 40.7567V40.8142ZM13.1762 7.39303C15.2491 8.56133 17.398 9.72964 19.5278 10.9746C20.4026 11.4917 20.4216 12.1046 19.6609 12.8132C19.1855 13.2729 18.6531 13.7325 18.0635 13.9815C15.9146 14.8817 13.7277 15.7244 11.5408 16.5288C11.0654 16.7012 10.4949 16.6245 9.82929 16.682C10.3427 13.292 11.5218 10.3808 13.1953 7.39303H13.1762ZM23.8446 30.8549C19.8131 32.3679 15.8005 33.9384 11.807 35.5089C10.9323 35.8537 10.1145 36.3516 9.22075 36.7921C9.22075 35.7196 9.22075 34.7237 9.22075 33.7469C9.23977 32.7127 9.35387 31.6784 8.42205 30.9315C8.32697 30.8549 8.30795 30.6442 8.30795 30.491C8.42205 27.7522 8.57418 25.0325 8.7073 22.083C10.8942 22.6767 12.872 23.1555 14.8307 23.7493C17.436 24.5345 20.0413 25.3964 22.2853 27.0052C23.141 27.6181 23.8446 28.4799 24.4532 29.3418C24.8905 29.9547 24.7384 30.5101 23.8446 30.8549ZM46.7788 26.1816C45.1244 30.2803 42.424 33.4788 38.5826 35.6238C38.0121 35.9494 37.3655 36.141 36.719 36.3133C35.1976 36.6964 34.5891 36.3708 34.1897 34.8577C33.7333 33.1915 33.41 31.5061 34.494 29.8972C34.6652 29.6483 34.7793 29.2652 34.7222 28.9971C34.532 28.1161 35.0265 27.8479 35.7111 27.5798C38.4115 26.5647 41.0738 25.4922 43.7742 24.4962C44.2686 24.3047 44.8201 24.2855 45.2004 24.2281C46.7028 24.2089 47.2923 24.9176 46.7788 26.2008V26.1816ZM53.2825 24.7644C52.9402 23.8833 52.636 23.0981 52.2556 22.1405C53.0543 22.1022 53.834 22.0447 54.899 21.9872C54.2904 23.0215 53.796 23.8642 53.2825 24.7644ZM55.5646 38.4584C55.7547 37.0603 55.7928 35.8345 56.116 34.6854C56.8577 32.0232 56.2872 32.636 58.8164 32.6169C58.9686 32.6169 59.1207 32.636 59.3489 32.6552C58.8735 34.7045 57.2 37.3476 55.5646 38.4584Z" fill="#6FB3A2"/>
<path d="M117.616 23.6923C118.225 28.4229 116 31.9853 113.68 35.4519C112.615 37.0416 111.188 38.4206 109.743 39.6846C108.925 40.3933 107.765 40.8338 106.681 41.0828C103.658 41.7722 101.148 39.8187 100.976 36.6968C100.919 35.586 101.014 34.456 101.205 33.3643C101.395 32.3109 101.775 31.2767 102.098 30.185C102.041 30.1467 101.927 30.0892 101.832 30.0701C99.9495 29.5912 99.2839 28.6145 99.6262 26.8524C99.9685 25.0521 101.395 23.903 103.068 24.1902C104.171 24.3626 104.875 23.9221 105.388 23.0219C106.225 21.6046 107.518 20.4555 109.686 21.2408C109.99 21.3557 110.39 21.3174 110.694 21.2408C113.737 20.3406 116.798 19.5553 120.012 19.6511C120.297 19.6511 120.64 19.3255 120.906 19.0957C121.495 18.5786 121.99 17.9082 122.656 17.5252C124.101 16.7016 125.698 17.6018 125.85 19.2872C125.907 19.9767 125.793 20.6853 125.755 21.4131C126.364 21.3748 127.01 21.2791 127.657 21.2791C129.749 21.2791 130.662 22.5431 130.034 24.5541C129.083 27.5611 129.121 30.6446 129.349 33.7473C129.349 33.9197 129.444 34.0921 129.54 34.3602C130.738 32.5599 131.669 30.8362 131.993 28.7294C132.354 26.3736 133.039 24.0753 133.59 21.7579C133.666 21.4514 133.78 21.145 133.913 20.8577C134.693 19.0957 136.481 18.6169 137.85 19.9767C138.839 20.9535 139.904 21.6238 141.159 22.1026C141.52 22.2367 141.843 22.4474 142.167 22.6389C144.24 23.9604 144.81 25.9714 143.441 28.0399C142.718 29.1316 141.653 29.9934 140.683 30.8936C140.227 31.315 139.675 31.7172 139.086 31.9087C137.546 32.4258 137.222 33.5175 137.451 34.9539C137.565 35.6434 137.679 36.3138 137.85 37.3289C138.687 36.5628 139.39 36.0839 139.904 35.4328C140.683 34.3985 141.33 33.2494 142.034 32.1577C142.281 31.7555 142.49 31.2958 142.794 30.9511C143.764 29.8977 145.514 30.319 145.894 31.7172C145.989 32.0428 146.046 32.445 145.951 32.7514C144.677 36.4861 142.737 39.7995 139.219 41.7914C136.671 43.247 133.723 42.1553 132.373 39.5122C132.183 39.1483 132.05 38.7653 131.936 38.4589C131.118 39.0143 130.395 39.7038 129.521 40.0868C127.124 41.1594 124.804 40.24 124.025 37.7119C123.492 35.9882 123.416 34.0921 123.207 32.2726C123.112 31.4873 123.207 30.6829 123.207 29.7253C123.055 30.0126 122.941 30.2041 122.865 30.3957C122.294 31.7172 121.762 33.0387 121.153 34.3219C120.887 34.8773 120.469 35.4136 120.012 35.835C119.385 36.4287 118.605 36.5819 117.825 36.1223C117.046 35.6817 116.722 34.9348 116.931 34.0921C117.122 33.326 117.502 32.6173 117.806 31.8895C118.51 30.185 119.175 28.4612 119.936 26.7758C120.412 25.7033 119.556 24.8989 119.461 23.9604C119.461 23.8263 118.396 23.7689 117.692 23.6731L117.616 23.6923ZM112.805 25.8757C112.71 25.7799 112.615 25.6841 112.52 25.5884C111.816 25.9523 110.808 26.163 110.485 26.7375C109.287 28.9592 108.241 31.2958 107.271 33.6324C106.872 34.5901 106.796 35.6626 106.567 36.6968C106.662 36.7351 106.777 36.7543 106.872 36.7926C110.047 33.8048 112.405 30.3765 112.824 25.8757H112.805Z" fill="#6FB3A2"/>
<path d="M94.7199 14.5564C94.1304 14.5947 93.3317 14.4032 93.0084 14.7288C92.6661 15.0544 92.7802 15.8588 92.6661 16.4525C92.1146 19.3062 90.5933 21.6045 88.6156 23.6538C86.4096 25.9138 83.9374 27.8482 81.4272 29.7252C80.7617 30.2232 80.6095 30.702 80.7617 31.4872C81.3322 34.226 81.9026 36.9648 82.9866 39.5696C83.3669 40.5081 83.8233 41.4274 84.4699 42.2318C85.4778 43.4958 86.4667 43.6874 87.8739 42.883C88.3113 42.634 88.7106 42.3275 89.2241 42.1935C90.0989 41.9636 90.8595 42.0786 91.411 42.8638C91.9245 43.6108 91.8484 44.6067 91.2399 45.3345C88.1592 49.0309 82.7014 48.8585 79.8298 44.9706C77.719 42.1169 76.4258 38.8801 75.532 35.4709C75.3229 34.7048 75.1707 34.5325 74.4861 35.0687C70.949 37.7501 67.2217 40.1633 63.3994 42.4233C62.4675 42.9787 61.4977 43.4575 60.3757 43.4001C59.2917 43.3426 58.2458 42.6148 58.0366 41.753C57.8465 40.9869 58.3219 40.1059 59.3678 39.5313C64.5213 36.6776 69.0473 32.9428 73.6684 29.323C73.9727 29.074 74.1058 28.8442 74.0487 28.442C73.5543 25.3584 73.0979 22.2749 72.6415 19.1913C72.5654 18.7316 72.4894 18.4444 71.9379 18.3869C70.949 18.2911 70.5306 17.6016 70.4926 16.6823C70.3785 14.384 70.6638 12.1049 70.987 9.82573C71.1582 8.56166 71.3103 7.2976 71.7857 6.11014C72.6415 3.92675 74.2009 3.37133 76.1406 4.65455C77.9472 5.84201 79.1072 7.43166 79.1072 9.76827C79.1072 14.135 79.3544 18.4827 79.6016 22.8494C79.6016 23.0793 79.6206 23.2899 79.6397 23.5198C79.6587 24.2093 79.9249 24.2667 80.4384 23.8645C82.0928 22.5621 83.6332 21.1449 85.0975 19.651C86.1434 18.5784 87.0942 17.4293 87.8549 16.1269C88.007 15.8588 88.1401 15.5523 88.2542 15.265C88.4634 14.7479 88.3493 14.4223 87.7408 14.3266C86.866 14.1733 86.0103 13.9435 85.2116 13.5413C84.2607 13.0625 83.5761 12.3539 83.3099 11.2813C82.7964 9.28946 84.1086 7.92963 86.0673 8.48505C87.6267 8.92556 89.1861 9.27031 90.8025 9.44268C93.2366 9.71081 95.6708 10.2471 98.162 9.78742C98.9797 9.6342 99.6643 9.9981 99.9876 10.8408C100.33 11.741 100.273 12.6028 99.5502 13.3115C98.6564 14.1733 97.4774 14.3649 96.3173 14.5181C95.8229 14.5947 95.3095 14.5947 94.796 14.633L94.7199 14.5564Z" fill="#F5E302"/>
</svg>
