<svg width="19" height="19" viewBox="0 0 19 19" fill="none" xmlns="http://www.w3.org/2000/svg">
<path d="M9.5 7.31356V9.98022M9.5 9.98022V12.6469M9.5 9.98022H12.1667M9.5 9.98022H6.83333M17.5 9.98022C17.5 11.0308 17.2931 12.0711 16.891 13.0417C16.489 14.0123 15.8997 14.8942 15.1569 15.6371C14.414 16.3799 13.5321 16.9692 12.5615 17.3713C11.5909 17.7733 10.5506 17.9802 9.5 17.9802C8.44943 17.9802 7.40914 17.7733 6.43853 17.3713C5.46793 16.9692 4.58601 16.3799 3.84315 15.6371C3.10028 14.8942 2.511 14.0123 2.10896 13.0417C1.70693 12.0711 1.5 11.0308 1.5 9.98022C1.5 7.85849 2.34285 5.82366 3.84315 4.32337C5.34344 2.82308 7.37827 1.98022 9.5 1.98022C11.6217 1.98022 13.6566 2.82308 15.1569 4.32337C16.6571 5.82366 17.5 7.85849 17.5 9.98022Z" stroke="#42BDBD" stroke-width="2" stroke-linecap="round" stroke-linejoin="round"/>
</svg>
